<svg width="32" height="32" viewBox="0 0 32 32" fill="none" xmlns="http://www.w3.org/2000/svg">
<rect width="32" height="32" rx="6" fill="#171717"/>
<svg x="4" y="4" width="24" height="24" viewBox="0 0 24 24">
<path fill-rule="evenodd" clip-rule="evenodd" fill="#48d17a" d="M21.55 11.05Q22.1 12 21.55 12.95L17.6 19.79Q17.05 20.75 15.95 20.75L8.05 20.75Q6.95 20.75 6.4 19.79L2.45 12.95Q1.9 12 2.45 11.05L6.4 4.21Q6.95 3.25 8.05 3.25L15.95 3.25Q17.05 3.25 17.6 4.21ZM18.47 11.26Q18.9 12 18.47 12.74L15.88 17.24Q15.45 17.98 14.6 17.98L9.4 17.98Q8.55 17.98 8.12 17.24L5.52 12.74Q5.1 12 5.52 11.26L8.12 6.76Q8.55 6.02 9.4 6.02L14.6 6.02Q15.45 6.02 15.88 6.76Z"/>
</svg>
</svg>
